# xmcd
#
# Track frame offsets: 
#        150
#        11632
#        25165
#
# Disc length: 463 seconds
#
# Revision: 0
# Processed by: cddbd v1.4PL0 Copyright (c) Steve Scherf et al.
# Submitted via: ExactAudioCopy v0.90a11
#
DISCID=1801cd03
DTITLE=Garth Brooks - Call Me Claus
DYEAR=1900
DGENRE=
TTITLE0='Zat You, Santa Claus?
TTITLE1=Mary Had A Little Lamb
TTITLE2=Call Me Claus
EXTD=
EXTT0=
EXTT1=
EXTT2=
PLAYORDER=
